<?xml version="1.0" encoding="UTF-8" standalone="no"?>
<!DOCTYPE svg PUBLIC "-//W3C//DTD SVG 1.1//EN" "http://www.w3.org/Graphics/SVG/1.1/DTD/svg11.dtd">
<svg width="100%" height="100%" viewBox="0 0 120 60" version="1.1" xmlns="http://www.w3.org/2000/svg" xmlns:xlink="http://www.w3.org/1999/xlink" xml:space="preserve" xmlns:serif="http://www.serif.com/" style="fill-rule:evenodd;clip-rule:evenodd;stroke-linejoin:round;stroke-miterlimit:2;">
    <g transform="matrix(0.794524,0,0,0.794524,3.80013,12.6397)">
        <g id="g870">
            <g id="Layer_1">
                <path id="polygon6" d="M3.6,38.8L22.9,22.4L21.3,3.8L3.6,38.8Z" style="fill-rule:nonzero;"/>
                <path id="polygon8" d="M14.8,30.3L3.5,39.9L38.6,39.9L14.8,30.3Z" style="fill-rule:nonzero;"/>
                <path id="polygon10" d="M22.1,4.4L24.7,33.5L39.8,39.6L22.1,4.4Z" style="fill-rule:nonzero;"/>
                <g id="g32">
                    <g id="g14">
                        <path id="path12" d="M48.8,24.5C48.3,26.7 48.6,28.5 49.6,29.9C50.6,31.3 52.2,32 54.3,32C55.2,32 56.1,31.9 57,31.7C57.9,31.5 58.6,31.3 59.1,31.1L58.6,34.5C57.8,34.7 57,34.9 56.2,35C55.4,35.1 54.5,35.2 53.5,35.2C49.9,35.2 47.3,34.3 45.7,32.4C44.1,30.6 43.7,28 44.4,24.6C45.1,21.2 46.7,18.5 49.1,16.5C51.5,14.5 54.5,13.5 58,13.5C59.1,13.5 60,13.6 60.8,13.8C61.6,14 62.3,14.2 62.8,14.4L61.7,18C61.2,17.6 60.5,17.4 59.8,17.2C59.1,17 58.3,16.9 57.5,16.9C55.4,16.9 53.5,17.6 51.9,19C50.3,20.4 49.3,22.2 48.8,24.5Z" style="fill-rule:nonzero;"/>
                    </g>
                    <g id="g18">
                        <path id="path16" d="M82.7,13.9L89.4,13.9L85,34.8L81,34.8L84.7,17.5L75.3,34.8L71.3,34.8L69.3,17.4L65.6,34.8L61.6,34.8L66,13.9L72.7,13.9L74.3,29.8L82.7,13.9Z" style="fill-rule:nonzero;"/>
                    </g>
                    <g id="g22">
                        <path id="path20" d="M99.2,32.3C98.3,33.4 97.4,34.2 96.5,34.6C95.5,35 94.7,35.2 93.8,35.2C92.2,35.2 91,34.8 90.2,33.9C89.4,33 89.2,31.9 89.4,30.7C89.8,29 90.7,27.6 92.1,26.7C93.6,25.8 95.5,25.4 98,25.4L100.5,25.4L100.6,25.1C100.8,24 100.7,23.2 100.2,22.8C99.7,22.4 98.9,22.1 97.8,22.1C97,22.1 96.1,22.3 95.2,22.6C94.3,22.9 93.5,23.3 92.8,23.9L93.4,20.4C94,20.1 94.9,19.9 96.1,19.6C97.3,19.4 98.3,19.2 99.1,19.2C101.4,19.2 103,19.7 103.8,20.8C104.6,21.9 104.8,23.6 104.3,25.9L103.4,30C103.1,31.4 102.9,32.5 102.8,33.5C102.7,34.5 102.6,35 102.6,35L99,35L99,34.3C98.9,33.6 99,33 99.2,32.3ZM99.9,28L100,27.7L98.2,27.7C96.7,27.7 95.6,28 94.8,28.4C94,28.8 93.5,29.4 93.4,30.3C93.3,30.9 93.4,31.4 93.7,31.8C94,32.1 94.6,32.3 95.5,32.3C96.7,32.3 97.7,31.9 98.5,31C99.1,30.2 99.6,29.2 99.9,28Z" style="fill-rule:nonzero;"/>
                    </g>
                    <g id="g26">
                        <path id="path24" d="M110.9,12.4L114.9,12.4L112.1,25.7L118.3,19.4L123.1,19.4L115.9,26.3L120.6,34.8L115.5,34.8L111.9,27.2L110.3,34.8L106.3,34.8L110.9,12.4Z" style="fill-rule:nonzero;"/>
                    </g>
                    <g id="g30">
                        <path id="path28" d="M135.3,34C134.5,34.4 133.7,34.7 132.8,34.9C131.9,35.1 131,35.2 129.9,35.2C127.2,35.2 125.3,34.5 124.2,33.1C123.1,31.7 122.8,29.7 123.3,27.1C123.8,24.7 124.9,22.7 126.5,21.3C128.1,19.8 130,19.1 132.2,19.1C134.8,19.1 136.5,19.9 137.3,21.5C138.1,23.1 138.2,25.4 137.5,28.4L126.8,28.4C126.8,29.5 126.9,30.3 127.3,30.9C127.9,31.8 128.9,32.3 130.4,32.3C131.5,32.3 132.6,32.1 133.6,31.7C134.7,31.3 135.4,31 135.8,30.7L135.3,34ZM127.4,25.6L134.3,25.6C134.5,24.4 134.4,23.5 133.9,22.9C133.5,22.3 132.7,22 131.7,22C130.5,22 129.5,22.4 128.7,23.3C128.3,23.9 127.8,24.7 127.4,25.6Z" style="fill-rule:nonzero;"/>
                    </g>
                </g>
                <g id="g36">
                    <path id="polygon34" d="M15.4,29.8L23.9,33.2L23,23.3L15.4,29.8Z" style="fill-rule:nonzero;"/>
                </g>
            </g>
        </g>
    </g>
</svg>
