<?xml version="1.0" encoding="UTF-8" standalone="no"?>
<!DOCTYPE svg PUBLIC "-//W3C//DTD SVG 1.1//EN" "http://www.w3.org/Graphics/SVG/1.1/DTD/svg11.dtd">
<svg width="100%" height="100%" viewBox="0 0 76 32" version="1.1" xmlns="http://www.w3.org/2000/svg" xmlns:xlink="http://www.w3.org/1999/xlink" xml:space="preserve" xmlns:serif="http://www.serif.com/" style="fill-rule:evenodd;clip-rule:evenodd;stroke-linejoin:round;stroke-miterlimit:2;">
    <g id="logo-gradient-blue-jira">
        <g id="Jira">
            <path d="M38.896,6.134L41.728,6.134L41.728,20.131C41.728,23.822 40.043,26.398 36.136,26.398C34.666,26.398 33.519,26.155 32.73,25.876L32.73,23.195C33.591,23.543 34.63,23.717 35.67,23.717C38.072,23.717 38.896,22.325 38.896,20.305L38.896,6.134Z" style="fill-rule:nonzero;"/>
            <path d="M46.927,5.054C48.038,5.054 48.827,5.716 48.827,6.9C48.827,8.049 48.038,8.745 46.927,8.745C45.815,8.745 45.027,8.084 45.027,6.9C45.027,5.751 45.815,5.054 46.927,5.054ZM45.529,10.939L48.253,10.939L48.253,26.259L45.529,26.259L45.529,10.939Z" style="fill-rule:nonzero;"/>
            <path d="M54.992,26.259L52.34,26.259L52.34,10.939L54.992,10.939L54.992,13.62C55.924,11.809 57.502,10.521 60.585,10.695L60.585,13.272C57.108,12.923 54.992,13.933 54.992,17.206L54.992,26.259Z" style="fill-rule:nonzero;"/>
            <path d="M73.311,23.508C72.308,25.528 70.408,26.572 67.97,26.572C63.775,26.572 61.66,23.125 61.66,18.599C61.66,14.281 63.883,10.625 68.292,10.625C70.587,10.625 72.379,11.635 73.311,13.62L73.311,10.939L76.036,10.939L76.036,26.259L73.311,26.259L73.311,23.508ZM68.687,24.135C71.125,24.135 73.275,22.638 73.275,19.226L73.275,18.007C73.275,14.595 71.304,13.098 68.974,13.098C65.926,13.098 64.349,15.047 64.349,18.599C64.385,22.29 65.891,24.135 68.687,24.135Z" style="fill-rule:nonzero;"/>
        </g>
        <g id="Icon">
            <path id="Vector" d="M24.664,3L12.26,3C12.26,5.994 14.77,8.432 17.853,8.432L20.147,8.432L20.147,10.556C20.147,13.55 22.657,15.988 25.74,15.988L25.74,4.045C25.74,3.453 25.273,3 24.664,3Z" style="fill-rule:nonzero;"/>
            <path id="Vector_2" d="M18.534,8.989L6.13,8.989C6.13,11.983 8.64,14.421 11.723,14.421L14.017,14.421L14.017,16.579C14.017,19.574 16.526,22.011 19.609,22.011L19.609,10.033C19.609,9.476 19.143,8.989 18.534,8.989Z" style="fill-rule:nonzero;"/>
            <path id="Vector_3" d="M12.404,15.012L0,15.012C0,18.007 2.509,20.444 5.592,20.444L7.887,20.444L7.887,22.568C7.887,25.563 10.396,28 13.479,28L13.479,16.057C13.479,15.465 12.977,15.012 12.404,15.012Z" style="fill-rule:nonzero;"/>
        </g>
    </g>
</svg>
