<?xml version="1.0" encoding="UTF-8" standalone="no"?>
<!DOCTYPE svg PUBLIC "-//W3C//DTD SVG 1.1//EN" "http://www.w3.org/Graphics/SVG/1.1/DTD/svg11.dtd">
<svg width="100%" height="100%" viewBox="0 0 120 60" version="1.1" xmlns="http://www.w3.org/2000/svg" xmlns:xlink="http://www.w3.org/1999/xlink" xml:space="preserve" xmlns:serif="http://www.serif.com/" style="fill-rule:evenodd;clip-rule:evenodd;stroke-linejoin:round;stroke-miterlimit:2;">
    <path d="M6.873,30.854C6.68,30.854 6.519,30.694 6.519,30.5L6.519,25.42C6.519,25.227 6.679,25.066 6.873,25.066L9.137,25.066C10.785,25.066 12.114,26.096 12.179,27.813C12.115,29.566 10.785,30.855 9.156,30.855L6.873,30.854ZM6.146,36.082C6.316,36.082 6.51,35.995 6.519,35.842L6.519,32.22C6.519,32.027 6.679,31.866 6.873,31.866L9.616,31.866C11.71,31.866 13.446,30.251 13.446,28.046L13.441,27.926L13.446,27.806C13.446,25.634 11.711,24.032 9.599,24.032L5.67,24.032C5.475,24.033 5.314,24.191 5.311,24.386L5.311,35.702C5.311,35.937 5.541,36.079 5.739,36.079L6.146,36.082ZM26.446,24.034L19.483,24.034C19.288,24.035 19.127,24.193 19.124,24.388L19.124,35.704C19.124,35.902 19.284,36.058 19.484,36.058L26.447,36.058C26.64,36.058 26.801,35.902 26.801,35.704L26.801,35.464C26.801,35.271 26.641,35.11 26.447,35.11L20.707,35.11C20.509,35.11 20.347,34.954 20.347,34.756L20.347,30.726C20.347,30.528 20.507,30.372 20.707,30.372L25.613,30.372C25.806,30.372 25.967,30.212 25.967,30.018L25.967,30C25.967,29.963 25.967,30 25.972,29.908L25.967,29.778L25.967,29.76C25.967,29.562 25.807,29.406 25.613,29.406L20.707,29.406C20.509,29.406 20.347,29.25 20.347,29.052L20.347,25.357C20.347,25.159 20.507,25.003 20.707,25.003L26.447,25.003C26.64,25.003 26.801,24.843 26.801,24.649L26.801,24.391C26.801,24.198 26.641,24.037 26.447,24.037M34.043,30.5C33.848,30.499 33.687,30.341 33.684,30.146L33.684,25.406C33.684,25.208 33.844,25.052 34.044,25.052L36.856,25.052C38.462,25.052 39.599,26.074 39.668,27.612C39.598,29.218 38.462,30.512 36.87,30.512L34.043,30.5ZM33.348,36.06C33.546,36.06 33.67,35.96 33.67,35.844L33.67,31.868C33.67,31.675 33.826,31.514 34.024,31.514L36.85,31.514C36.965,31.528 37.07,31.592 37.13,31.694L39.46,35.859C39.543,36.011 39.612,36.061 39.814,36.061L40.707,36.061C40.707,36.061 41.071,36.061 40.785,35.518L38.525,31.551C38.425,31.358 38.691,31.266 38.691,31.266C40.039,30.829 41.079,29.181 41.024,27.566C41.064,26.266 40.44,24.97 38.732,24.28C38.645,24.243 38.082,24.036 37.126,24.036L32.68,24.036C32.676,24.036 32.673,24.036 32.669,24.036C32.554,24.036 32.459,24.131 32.459,24.246C32.459,24.248 32.459,24.25 32.459,24.252L32.459,35.706C32.459,35.904 32.619,36.06 32.819,36.06L33.348,36.06ZM47.95,36.058L48.12,36.058C48.29,36.058 48.396,35.958 48.396,35.842L48.396,31.176C48.396,30.983 48.556,30.826 48.75,30.826L53.808,30.826C54.066,30.826 54.028,30.522 54.028,30.334C54.033,30.247 54.028,30.164 54.028,30.094C54.028,29.974 53.928,29.874 53.808,29.874L48.75,29.874C48.557,29.874 48.396,29.718 48.396,29.52L48.396,25.355C48.396,25.157 48.556,25.001 48.75,25.001L54.507,25.001C54.7,25.001 54.861,24.841 54.861,24.647L54.861,24.389C54.861,24.196 54.701,24.035 54.507,24.035L47.544,24.035C47.349,24.036 47.188,24.194 47.185,24.389L47.185,35.705C47.185,35.903 47.345,36.059 47.545,36.059L47.715,36.059L47.95,36.058ZM60.334,28.405C60.424,28.168 60.531,27.939 60.656,27.719L60.256,27.355C61.816,25.487 63.85,24.925 65.649,25.252C66.017,25.302 66.385,25.39 66.749,25.524C69.326,26.481 70.629,29.321 69.662,31.87C69.565,32.119 69.45,32.361 69.317,32.593L69.754,32.966C68.024,35.014 65.718,35.488 63.799,34.916L63.247,34.75C60.675,33.793 59.367,30.953 60.334,28.404L60.334,28.405ZM69.134,24.033L68.234,24.893C67.93,24.723 67.604,24.566 67.264,24.443C64.337,23.357 61.264,24.586 59.556,26.873C58.668,28.185 58.143,29.8 58.272,31.461C58.272,31.461 58.277,34.586 61.172,36.427L61.904,35.424C62.231,35.613 62.573,35.774 62.926,35.907C66.239,37.137 69.912,35.567 71.113,32.405C71.113,32.405 71.993,30.477 71.713,28.369C71.713,28.369 71.488,25.525 69.168,24.034L69.134,24.033ZM78.22,30.5C78.025,30.499 77.864,30.341 77.861,30.146L77.861,25.406C77.861,25.208 78.021,25.052 78.221,25.052L81.033,25.052C82.639,25.052 83.776,26.074 83.845,27.612C83.775,29.218 82.639,30.512 81.047,30.512L78.22,30.5ZM77.525,36.06C77.723,36.06 77.847,35.96 77.847,35.844L77.847,31.868C77.847,31.675 78.007,31.514 78.201,31.514L81.027,31.514C81.142,31.528 81.247,31.592 81.307,31.694L83.631,35.859C83.689,36.002 83.839,36.086 83.991,36.061L84.884,36.061C84.884,36.061 85.248,36.061 84.962,35.518L82.702,31.551C82.602,31.358 82.868,31.266 82.868,31.266C84.216,30.829 85.256,29.181 85.201,27.566C85.241,26.266 84.617,24.97 82.909,24.28C82.822,24.243 82.259,24.036 81.303,24.036L76.86,24.036C76.856,24.036 76.853,24.036 76.849,24.036C76.734,24.036 76.639,24.131 76.639,24.246C76.639,24.248 76.639,24.25 76.639,24.252L76.639,35.706C76.639,35.904 76.799,36.06 76.999,36.06L77.525,36.06ZM101.498,33.638C101.636,33.762 101.921,34.075 101.631,34.305C100.365,35.305 98.989,35.939 97.475,35.939C97.401,35.939 97.332,35.934 97.263,35.929L97.065,35.939C93.66,35.939 90.903,33.279 90.903,29.892L90.908,29.772L90.903,29.652C90.903,26.282 93.66,23.572 97.065,23.572L97.217,23.577L97.475,23.572C99.21,23.572 100.503,24.142 101.612,25.137C101.957,25.437 101.63,25.685 101.63,25.685L101.368,25.935C101.268,26.035 100.986,26.257 100.868,26.137L100.67,25.953L100.868,26.137L100.67,25.953C99.75,25.138 98.595,24.633 97.288,24.583C94.444,24.689 92.24,26.981 92.175,29.783C92.239,32.558 94.445,34.831 97.283,34.937C98.645,34.887 99.683,34.334 100.67,33.533C100.67,33.533 101.09,33.211 101.508,33.648M114.343,24.044L107.38,24.044C107.185,24.045 107.024,24.203 107.021,24.398L107.021,35.714C107.021,35.912 107.181,36.068 107.381,36.068L114.344,36.068C114.542,36.068 114.704,35.912 114.704,35.714L114.704,35.474C114.701,35.279 114.54,35.121 114.345,35.12L108.605,35.12C108.407,35.12 108.245,34.964 108.245,34.766L108.245,30.736C108.245,30.538 108.405,30.382 108.605,30.382L113.511,30.382C113.704,30.382 113.865,30.222 113.865,30.028L113.865,30C113.865,29.963 113.865,30 113.87,29.908L113.865,29.778L113.865,29.76C113.865,29.562 113.705,29.406 113.511,29.406L108.605,29.406C108.407,29.406 108.245,29.25 108.245,29.052L108.245,25.357C108.245,25.159 108.405,25.003 108.605,25.003L114.345,25.003C114.54,25.002 114.701,24.844 114.704,24.649L114.704,24.391C114.701,24.196 114.54,24.038 114.345,24.037" style="fill-rule:nonzero;"/>
</svg>
