<?xml version="1.0" encoding="UTF-8" standalone="no"?>
<!DOCTYPE svg PUBLIC "-//W3C//DTD SVG 1.1//EN" "http://www.w3.org/Graphics/SVG/1.1/DTD/svg11.dtd">
<svg width="100%" height="100%" viewBox="0 0 128 128" version="1.1" xmlns="http://www.w3.org/2000/svg" xmlns:xlink="http://www.w3.org/1999/xlink" xml:space="preserve" xmlns:serif="http://www.serif.com/" style="fill-rule:evenodd;clip-rule:evenodd;stroke-linejoin:round;stroke-miterlimit:2;">
    <g transform="matrix(1,0,0,1,-1.34172,-6.30608)">
        <g transform="matrix(1,0,0,1,0,10.8679)">
            <path d="M88.763,88.707L87.243,88.707L87.243,87.247C86.717,88.325 85.591,88.989 84.393,88.927C82.193,88.927 81.093,87.614 81.093,84.987L81.093,79.467L82.563,79.467L82.563,84.757C82.563,86.704 83.31,87.677 84.803,87.677C85.486,87.692 86.141,87.398 86.583,86.877C87.068,86.292 87.317,85.546 87.283,84.787L87.283,79.467L88.763,79.467L88.763,88.707Z"/>
        </g>
        <g transform="matrix(1,0,0,1,0,10.8679)">
            <path d="M48.523,88.707L47.033,88.707L47.033,87.247C46.508,88.322 45.388,88.985 44.193,88.927C41.993,88.927 40.893,87.614 40.893,84.987L40.893,79.467L42.363,79.467L42.363,84.757C42.363,86.704 43.11,87.677 44.603,87.677C45.286,87.692 45.941,87.398 46.383,86.877C46.868,86.292 47.117,85.546 47.083,84.787L47.083,79.467L48.563,79.467L48.523,88.707Z"/>
        </g>
        <g transform="matrix(1,0,0,1,0,10.8679)">
            <path d="M79.553,88.617C79.124,88.827 78.65,88.927 78.173,88.907C76.553,88.907 75.743,88.004 75.743,86.197L75.743,80.727L74.193,80.727L74.193,79.467L75.783,79.467L75.783,77.247L77.193,76.727L77.193,79.457L79.523,79.457L79.523,80.717L77.193,80.717L77.193,85.927C77.161,86.392 77.28,86.855 77.533,87.247C77.79,87.523 78.157,87.67 78.533,87.647C78.892,87.663 79.246,87.553 79.533,87.337L79.553,88.617Z"/>
        </g>
        <g transform="matrix(1,0,0,1,0,10.8679)">
            <path d="M33.193,88.377L33.193,86.787C33.958,87.367 34.893,87.68 35.853,87.677C37.186,87.677 37.853,87.244 37.853,86.377C37.86,86.155 37.801,85.935 37.683,85.747C37.557,85.547 37.39,85.377 37.193,85.247C36.984,85.102 36.759,84.982 36.523,84.887L35.693,84.557C35.324,84.414 34.964,84.25 34.613,84.067C34.327,83.92 34.064,83.731 33.833,83.507C33.629,83.305 33.469,83.064 33.363,82.797C33.251,82.5 33.197,82.184 33.203,81.867C33.196,81.463 33.3,81.066 33.503,80.717C33.701,80.382 33.971,80.096 34.293,79.877C34.639,79.645 35.021,79.473 35.423,79.367C35.859,79.268 36.306,79.227 36.753,79.247C37.49,79.233 38.223,79.373 38.903,79.657L38.903,81.157C38.204,80.705 37.385,80.471 36.553,80.487C36.3,80.482 36.048,80.512 35.803,80.577C35.599,80.633 35.406,80.725 35.233,80.847C35.08,80.954 34.954,81.094 34.863,81.257C34.775,81.42 34.731,81.602 34.733,81.787C34.725,81.998 34.77,82.208 34.863,82.397C34.957,82.566 35.087,82.713 35.243,82.827C35.432,82.964 35.637,83.078 35.853,83.167L36.673,83.497C37.048,83.637 37.415,83.798 37.773,83.977C38.073,84.126 38.352,84.315 38.603,84.537C38.827,84.738 39.007,84.983 39.133,85.257C39.266,85.573 39.328,85.914 39.313,86.257C39.324,86.674 39.22,87.085 39.013,87.447C38.803,87.772 38.523,88.045 38.193,88.247C37.838,88.479 37.445,88.648 37.033,88.747C36.581,88.856 36.118,88.91 35.653,88.907C34.802,88.934 33.957,88.752 33.193,88.377Z"/>
        </g>
        <g transform="matrix(1,0,0,1,0,10.8679)">
            <path d="M65.913,88.187L65.913,86.397C66.134,86.591 66.38,86.756 66.643,86.887C66.932,87.035 67.233,87.159 67.543,87.257C67.87,87.357 68.205,87.434 68.543,87.487C68.834,87.538 69.128,87.565 69.423,87.567C70.157,87.62 70.889,87.438 71.513,87.047C72.213,86.455 72.406,85.445 71.973,84.637C71.806,84.363 71.589,84.122 71.333,83.927C71.019,83.693 70.685,83.489 70.333,83.317L69.133,82.697C68.68,82.47 68.26,82.237 67.873,81.997C67.511,81.776 67.175,81.515 66.873,81.217C66.589,80.938 66.359,80.609 66.193,80.247C65.819,79.34 65.87,78.312 66.333,77.447C66.582,77.017 66.924,76.648 67.333,76.367C67.774,76.076 68.261,75.863 68.773,75.737C69.312,75.597 69.866,75.527 70.423,75.527C71.376,75.467 72.33,75.624 73.213,75.987L73.213,77.697C72.337,77.138 71.311,76.862 70.273,76.907C69.937,76.906 69.602,76.939 69.273,77.007C68.963,77.07 68.665,77.185 68.393,77.347C68.142,77.498 67.926,77.703 67.763,77.947C67.596,78.217 67.513,78.53 67.523,78.847C67.517,79.145 67.582,79.44 67.713,79.707C67.849,79.963 68.036,80.187 68.263,80.367C68.537,80.589 68.831,80.783 69.143,80.947L70.343,81.557C70.803,81.784 71.243,82.024 71.663,82.277C72.057,82.515 72.423,82.796 72.753,83.117C73.054,83.407 73.304,83.745 73.493,84.117C73.684,84.516 73.78,84.954 73.773,85.397C73.792,85.96 73.664,86.518 73.403,87.017C73.162,87.453 72.819,87.823 72.403,88.097C71.953,88.384 71.455,88.587 70.933,88.697C70.358,88.825 69.772,88.888 69.183,88.887C68.93,88.9 68.676,88.9 68.423,88.887C68.123,88.887 67.813,88.807 67.503,88.747C67.202,88.688 66.905,88.611 66.613,88.517C66.365,88.44 66.13,88.329 65.913,88.187Z"/>
        </g>
        <g transform="matrix(1,0,0,1,0,10.8679)">
            <path d="M28.723,75.767L23.933,88.707L22.263,88.707L17.563,75.767L19.253,75.767L22.833,86.027C22.956,86.401 23.043,86.786 23.093,87.177C23.151,86.781 23.252,86.392 23.393,86.017L27.093,75.767L28.723,75.767Z"/>
        </g>
        <g transform="matrix(1,0,0,1,0,10.8679)">
            <rect x="102.043" y="79.467" width="1.48" height="9.24"/>
        </g>
        <g transform="matrix(1,0,0,1,0,10.8679)">
            <rect x="29.833" y="79.467" width="1.48" height="9.24"/>
        </g>
        <g transform="matrix(1,0,0,1,0,10.8679)">
            <rect x="59.803" y="75.027" width="1.48" height="13.68"/>
        </g>
        <g transform="matrix(1,0,0,1,0,10.8679)">
            <path d="M110.103,88.927C108.878,88.981 107.687,88.508 106.833,87.627C105.992,86.689 105.554,85.456 105.613,84.197C105.533,82.863 105.99,81.551 106.883,80.557C107.796,79.659 109.044,79.183 110.323,79.247C111.533,79.177 112.715,79.642 113.553,80.517C114.378,81.501 114.794,82.765 114.713,84.047C114.772,85.344 114.323,86.615 113.463,87.587C112.589,88.496 111.363,88.985 110.103,88.927ZM110.203,80.499L110.213,80.497L110.193,80.497L110.203,80.499C109.341,80.468 108.51,80.837 107.953,81.497C107.362,82.261 107.067,83.213 107.123,84.177C107.071,85.115 107.37,86.039 107.963,86.767C108.532,87.405 109.359,87.754 110.213,87.717C111.054,87.767 111.871,87.423 112.423,86.787C112.983,86.026 113.256,85.09 113.193,84.147C113.254,83.195 112.982,82.25 112.423,81.477C111.881,80.817 111.056,80.452 110.203,80.499Z"/>
        </g>
        <g transform="matrix(1,0,0,1,0,10.8679)">
            <path d="M57.573,88.707L56.093,88.707L56.093,87.247C55.539,88.324 54.403,88.983 53.193,88.927C52.405,88.977 51.629,88.715 51.033,88.197C50.507,87.689 50.226,86.977 50.263,86.247C50.263,84.52 51.28,83.52 53.313,83.247L56.083,82.857C56.083,81.284 55.45,80.497 54.183,80.497C53.078,80.5 52.011,80.905 51.183,81.637L51.183,80.117C52.12,79.531 53.208,79.228 54.313,79.247C56.486,79.247 57.573,80.397 57.573,82.697L57.573,88.707ZM56.093,84.027L53.863,84.337C53.314,84.386 52.784,84.561 52.313,84.847C51.932,85.164 51.736,85.654 51.793,86.147C51.779,86.565 51.951,86.968 52.263,87.247C52.623,87.548 53.084,87.702 53.553,87.677C54.242,87.696 54.907,87.415 55.373,86.907C55.87,86.363 56.13,85.643 56.093,84.907L56.093,84.027Z"/>
        </g>
        <g transform="matrix(1,0,0,1,0,10.8679)">
            <path d="M99.323,88.707L97.843,88.707L97.843,87.137C97.218,88.295 95.977,88.993 94.663,88.927C93.592,88.97 92.559,88.511 91.873,87.687C91.149,86.715 90.794,85.516 90.873,84.307C90.809,82.985 91.22,81.682 92.033,80.637C92.769,79.742 93.874,79.23 95.033,79.247C96.164,79.183 97.238,79.765 97.803,80.747L97.803,75.027L99.283,75.027L99.323,88.707ZM97.843,84.527L97.843,83.167C97.86,82.461 97.593,81.776 97.103,81.267C96.617,80.75 95.932,80.466 95.223,80.487C94.394,80.455 93.598,80.828 93.093,81.487C92.533,82.287 92.258,83.252 92.313,84.227C92.262,85.127 92.523,86.018 93.053,86.747C93.534,87.355 94.278,87.697 95.053,87.667C95.82,87.689 96.556,87.361 97.053,86.777C97.585,86.15 97.866,85.349 97.843,84.527Z"/>
        </g>
        <g transform="matrix(1,0,0,1,0,10.8679)">
            <path d="M30.593,77.117C30.339,77.123 30.094,77.025 29.913,76.847C29.726,76.668 29.624,76.416 29.633,76.157C29.632,76.14 29.632,76.123 29.632,76.106C29.632,75.584 30.06,75.156 30.582,75.156C30.599,75.156 30.616,75.156 30.633,75.157C30.89,75.158 31.138,75.258 31.323,75.437C31.683,75.82 31.683,76.424 31.323,76.807C31.133,77.006 30.869,77.119 30.593,77.117Z"/>
        </g>
        <g transform="matrix(1,0,0,1,0,10.8679)">
            <path d="M102.803,77.117C102.549,77.124 102.303,77.026 102.123,76.847C101.936,76.668 101.834,76.416 101.843,76.157C101.843,75.608 102.294,75.157 102.843,75.157C103.1,75.158 103.348,75.258 103.533,75.437C103.893,75.82 103.893,76.424 103.533,76.807C103.343,77.006 103.079,77.119 102.803,77.117Z"/>
        </g>
        <g transform="matrix(1.66366,0,0,1.48767,-41.9302,-27.9393)">
            <path d="M68.585,46.561L73.895,48.701L73.895,65.881L68.535,68.021L59.985,59.551L54.585,63.741L52.465,62.671L52.465,51.911L54.605,50.911L59.985,55.121L68.585,46.561ZM62.985,57.291L68.535,61.671L68.535,52.931L62.985,57.291ZM54.585,54.111L54.585,60.631L57.825,57.291L54.585,54.111Z"/>
        </g>
    </g>
</svg>
