<?xml version="1.0" encoding="UTF-8" standalone="no"?>
<!DOCTYPE svg PUBLIC "-//W3C//DTD SVG 1.1//EN" "http://www.w3.org/Graphics/SVG/1.1/DTD/svg11.dtd">
<svg width="100%" height="100%" viewBox="0 0 120 60" version="1.1" xmlns="http://www.w3.org/2000/svg" xmlns:xlink="http://www.w3.org/1999/xlink" xml:space="preserve" xmlns:serif="http://www.serif.com/" style="fill-rule:evenodd;clip-rule:evenodd;stroke-linejoin:round;stroke-miterlimit:2;">
    <g transform="matrix(1,0,0,1,0.387974,-0.0775934)">
        <path d="M16.147,5.154L17.237,7.204C17.474,7.574 17.751,7.917 18.061,8.228C18.974,9.141 19.843,10.098 20.621,11.123C22.469,13.55 23.716,16.245 24.607,19.163C25.141,20.945 25.431,22.771 25.453,24.619C25.543,30.142 23.649,34.885 19.819,38.827C19.198,39.452 18.528,40.025 17.815,40.542C17.435,40.542 17.258,40.242 17.102,39.985C16.802,39.485 16.634,38.938 16.545,38.382C16.411,37.714 16.322,37.046 16.367,36.355L16.367,36.043C16.345,35.976 16.011,5.311 16.144,5.155L16.147,5.154Z" style="fill:rgb(12,33,0);fill-rule:nonzero;"/>
    </g>
    <g transform="matrix(1,0,0,1,-0.349176,-0.349176)">
        <path d="M16.147,5.088C16.102,4.998 16.057,5.066 16.013,5.11C16.035,5.555 15.879,5.956 15.633,6.335C15.366,6.715 15.009,7.003 14.653,7.315C12.671,9.03 11.113,11.101 9.865,13.417C8.217,16.535 7.349,19.875 7.105,23.394C6.995,24.664 7.505,29.14 7.907,30.431C8.997,33.861 10.957,36.733 13.507,39.227C14.131,39.827 14.799,40.385 15.489,40.919C15.689,40.919 15.712,40.741 15.756,40.607C15.844,40.323 15.911,40.032 15.956,39.738C16.156,38.625 16.268,37.511 16.401,36.398L16.156,5.088L16.147,5.088Z" style="fill:rgb(12,33,0);fill-rule:nonzero;"/>
    </g>
    <path d="M17.24,41.9C17.285,41.388 17.54,40.965 17.797,40.542C17.53,40.432 17.329,40.208 17.173,39.962C17.039,39.739 16.928,39.462 16.839,39.227C16.527,38.292 16.459,37.312 16.371,36.354L16.371,35.774C16.261,35.864 16.237,36.62 16.237,36.732C16.17,37.756 16.037,38.759 15.837,39.738C15.77,40.138 15.727,40.54 15.481,40.896C15.481,40.941 15.481,40.986 15.503,41.052C15.903,42.232 16.015,43.435 16.083,44.66L16.083,45.105C16.083,45.639 16.061,45.528 16.506,45.705C16.684,45.772 16.886,45.795 17.063,45.928C17.197,45.928 17.219,45.818 17.219,45.728L17.152,44.993L17.152,42.943C17.13,42.587 17.197,42.23 17.242,41.896L17.24,41.9Z" style="fill-rule:nonzero;"/>
    <g transform="matrix(1.02112,0,0,1.02112,-4.37627,-1.84595)">
        <path d="M37.73,33.72L37.73,35.797C37.728,35.879 37.732,35.962 37.744,36.043C37.771,36.289 37.922,36.439 38.144,36.508C38.351,36.563 38.562,36.604 38.774,36.631C38.897,36.645 38.938,36.699 38.952,36.831C38.966,37.296 38.925,37.351 38.474,37.323C37.422,37.268 36.369,37.255 35.317,37.323L35.217,37.323C34.889,37.337 34.862,37.309 34.862,36.981C34.862,36.926 34.876,36.858 34.876,36.803C34.876,36.703 34.944,36.653 35.04,36.653C35.26,36.626 35.464,36.571 35.67,36.53C35.957,36.462 36.12,36.284 36.148,35.997C36.188,35.683 36.188,35.355 36.188,35.04L36.202,31.378C36.211,31.162 36.094,30.958 35.902,30.858C35.655,30.721 35.393,30.611 35.122,30.53C35.04,30.503 34.958,30.49 34.89,30.448C34.69,30.352 34.685,30.175 34.876,30.065C34.944,30.025 35.026,29.997 35.108,29.983C35.937,29.861 36.752,29.655 37.54,29.368C37.704,29.313 37.745,29.328 37.76,29.491C37.774,29.591 37.76,29.711 37.746,29.805C37.719,29.983 37.719,30.16 37.719,30.325C37.719,30.393 37.733,30.462 37.801,30.503C37.869,30.544 37.938,30.503 38.001,30.463C38.288,30.243 38.575,30.039 38.889,29.863C39.339,29.617 39.819,29.398 40.339,29.33C40.969,29.248 41.514,29.412 41.993,29.822C42.191,29.999 42.365,30.201 42.512,30.423C42.649,30.623 42.662,30.628 42.84,30.491C43.36,30.108 43.906,29.767 44.494,29.521C45.109,29.261 45.738,29.221 46.366,29.439C47.008,29.671 47.446,30.122 47.706,30.737C47.926,31.229 48.02,31.737 48.02,32.267L48.02,35.929C48.02,36.175 48.12,36.329 48.362,36.449C48.622,36.549 48.909,36.599 49.182,36.654C49.36,36.694 49.36,36.694 49.36,36.874C49.333,37.324 49.292,37.352 48.854,37.324C47.757,37.263 46.658,37.263 45.561,37.324C45.341,37.338 45.341,37.338 45.329,37.119L45.329,37.051C45.315,36.681 45.315,36.681 45.671,36.601L46.026,36.505C46.273,36.447 46.449,36.225 46.45,35.972L46.49,34.947L46.463,32.269C46.453,32.03 46.402,31.794 46.313,31.572C45.971,30.738 45.22,30.438 44.495,30.52C43.948,30.575 43.47,30.793 43.019,31.108C42.923,31.176 42.855,31.258 42.869,31.395C42.992,32.27 42.909,33.145 42.924,34.019L42.924,35.919C42.924,36.261 43.061,36.425 43.389,36.507L44.019,36.644C44.115,36.658 44.169,36.699 44.169,36.808L44.169,36.908C44.155,37.291 44.129,37.308 43.745,37.304C42.652,37.249 41.558,37.264 40.479,37.304C40.109,37.318 40.079,37.277 40.096,36.904C40.11,36.684 40.136,36.672 40.342,36.631L40.792,36.549C41.192,36.467 41.339,36.317 41.366,35.893L41.406,34.977L41.379,32.23C41.352,31.888 41.279,31.56 41.092,31.246C40.819,30.74 40.392,30.481 39.807,30.453C39.219,30.413 38.7,30.631 38.207,30.903C37.865,31.103 37.715,31.34 37.742,31.737L37.742,33.732L37.73,33.72ZM63.477,33.803L63.477,35.73C63.479,35.867 63.488,36.004 63.504,36.14C63.516,36.326 63.65,36.483 63.832,36.523C64.068,36.592 64.311,36.633 64.556,36.646C64.693,36.66 64.72,36.714 64.734,36.824L64.734,36.92C64.72,37.398 64.666,37.453 64.201,37.426C63.161,37.358 62.124,37.371 61.085,37.426L60.685,37.44C60.603,37.44 60.585,37.4 60.562,37.344C60.522,37.155 60.522,36.959 60.562,36.77C60.576,36.688 60.63,36.67 60.712,36.647C60.912,36.62 61.082,36.579 61.272,36.547C61.614,36.465 61.737,36.327 61.75,35.973L61.79,34.825L61.79,31.463C61.79,31.217 61.694,31.067 61.476,30.957C61.23,30.82 60.97,30.725 60.696,30.629C60.614,30.602 60.532,30.574 60.464,30.533C60.286,30.41 60.264,30.233 60.437,30.096C60.515,30.032 60.61,29.994 60.71,29.986C61.585,29.849 62.432,29.658 63.252,29.33C63.348,29.29 63.389,29.316 63.43,29.398C63.471,29.48 63.485,29.576 63.47,29.671L63.43,30.313C63.43,30.395 63.39,30.513 63.457,30.545C63.539,30.6 63.594,30.477 63.662,30.445C64.066,30.107 64.511,29.822 64.988,29.598C65.412,29.398 65.848,29.27 66.341,29.298C67.257,29.353 67.913,29.818 68.336,30.624C68.556,31.048 68.65,31.512 68.691,31.991L68.731,32.991L68.745,36.011C68.759,36.243 68.841,36.394 69.073,36.476C69.314,36.556 69.56,36.616 69.811,36.654C70.031,36.681 70.043,36.722 70.057,36.927L70.057,36.995C70.03,37.46 70.002,37.473 69.537,37.445C68.517,37.39 67.496,37.39 66.476,37.445C66.339,37.459 66.203,37.445 66.076,37.459C65.994,37.459 65.939,37.445 65.926,37.363C65.899,37.185 65.871,37.008 65.912,36.816C65.926,36.734 65.967,36.693 66.062,36.679L66.692,36.579C66.912,36.524 67.034,36.379 67.062,36.179L67.089,35.796L67.075,32.94C67.075,32.612 67.061,32.284 66.993,31.956C66.829,31.256 66.296,30.756 65.573,30.686C64.943,30.618 64.373,30.782 63.851,31.123C63.591,31.287 63.481,31.519 63.481,31.806L63.481,33.87C63.481,33.83 63.481,33.83 63.495,33.83L63.477,33.803Z" style="fill-rule:nonzero;"/>
        <path d="M103.503,29.935C103.353,28.937 102.983,28.049 102.341,27.27C101.782,26.582 101.058,26.046 100.236,25.712C99.376,25.357 98.459,25.247 97.53,25.22C97.147,25.206 91.927,25.288 91.544,25.22C91.448,25.206 91.38,25.234 91.324,25.316C91.256,25.416 91.187,25.521 91.146,25.63C90.982,26 90.982,25.972 91.378,26.026C91.706,26.081 92.02,26.108 92.335,26.204C92.622,26.3 92.827,26.464 92.895,26.778C92.922,26.928 92.95,31.738 92.95,33.98L92.895,35.58C92.881,35.703 92.868,35.826 92.827,35.935C92.772,36.099 92.677,36.235 92.513,36.305C92.333,36.39 92.138,36.441 91.939,36.455C91.569,36.495 91.515,36.51 91.392,36.92L91.352,37.07C91.325,37.248 91.338,37.275 91.516,37.275L95.602,37.315L97.202,37.288L98.309,37.151C99.566,36.919 100.687,36.399 101.643,35.566C102.189,35.084 102.635,34.499 102.955,33.844C103.338,33.079 103.502,32.244 103.543,31.398C103.611,30.92 103.583,30.428 103.503,29.936L103.503,29.935ZM101.521,31.875C101.466,32.75 101.289,33.597 100.838,34.362C100.264,35.36 99.444,36.057 98.31,36.302C97.818,36.402 97.326,36.452 96.81,36.384C96.44,36.344 96.086,36.302 95.744,36.179C95.129,35.959 94.91,35.579 94.897,34.979L94.883,26.739C94.883,26.247 95.103,26.139 95.457,26.124C95.99,26.084 96.537,26.097 97.07,26.151C97.637,26.206 98.194,26.341 98.724,26.551C99.118,26.715 99.482,26.941 99.804,27.221C100.542,27.851 101.034,28.641 101.304,29.571C101.524,30.323 101.564,31.088 101.524,31.853L101.521,31.875ZM114.861,33.215C114.861,33.133 114.861,33.065 114.847,32.983C114.724,32.231 114.327,31.657 113.713,31.22C113.317,30.933 112.866,30.742 112.401,30.605C112.319,30.578 112.251,30.55 112.169,30.537C112.183,30.469 112.224,30.455 112.265,30.441C112.538,30.304 112.798,30.154 113.03,29.949C113.454,29.594 113.73,29.156 113.877,28.623C113.959,28.336 113.959,28.049 113.932,27.748C113.887,27.035 113.519,26.38 112.934,25.971C112.304,25.506 111.567,25.315 110.802,25.301C109.326,25.274 107.837,25.301 106.362,25.301C105.938,25.301 105.515,25.328 105.077,25.261C104.995,25.247 104.877,25.221 104.817,25.316C104.717,25.494 104.597,25.671 104.557,25.876C104.543,25.972 104.571,26.026 104.68,26.04L105.623,26.177C105.993,26.232 106.253,26.437 106.279,26.765C106.306,26.992 106.319,27.22 106.319,27.448L106.292,30.003L106.278,35.059C106.278,35.359 106.238,35.647 106.182,35.947C106.155,36.141 106.015,36.302 105.827,36.357C105.554,36.439 105.294,36.521 105.007,36.521C104.85,36.506 104.702,36.603 104.652,36.753C104.597,36.876 104.552,37.013 104.529,37.136C104.502,37.3 104.543,37.356 104.707,37.336C104.83,37.322 109.34,37.432 110.187,37.35C110.693,37.295 111.187,37.227 111.69,37.077C112.55,36.804 113.344,36.407 113.972,35.737C114.492,35.19 114.792,34.534 114.819,33.769C114.859,33.591 114.859,33.414 114.859,33.222L114.861,33.215ZM108.233,27.615L108.273,26.522C108.273,26.317 108.355,26.222 108.56,26.18C108.888,26.112 109.216,26.14 109.544,26.153C109.872,26.18 110.186,26.221 110.514,26.317C111.114,26.495 111.58,26.837 111.854,27.41C111.978,27.671 112.044,27.955 112.045,28.244C112.059,28.627 112.031,28.996 111.881,29.364C111.649,29.87 111.281,30.198 110.747,30.294C110.213,30.39 108.697,30.349 108.465,30.349C108.26,30.349 108.245,30.322 108.245,30.117L108.245,28.83C108.213,28.43 108.208,28.028 108.231,27.627L108.233,27.615ZM112.673,34.967C112.441,35.582 112.017,36.007 111.416,36.237C111.088,36.36 110.76,36.437 110.416,36.415C109.992,36.401 109.569,36.415 109.146,36.333C108.572,36.21 108.312,35.663 108.271,35.267C108.203,34.57 108.244,33.859 108.231,33.34L108.231,31.536C108.231,31.316 108.258,31.249 108.491,31.249L109.776,31.263L110.651,31.363C111.266,31.5 111.826,31.733 112.264,32.21C112.619,32.593 112.811,33.057 112.852,33.563C112.892,34.041 112.866,34.506 112.688,34.957L112.673,34.967Z" style="fill-rule:nonzero;"/>
        <path d="M77.95,30.85L78.305,30.905C78.688,30.919 79.139,30.782 79.275,30.249C79.35,29.994 79.35,29.724 79.275,29.469C79.193,29.469 79.152,29.537 79.111,29.565C78.906,29.729 78.674,29.825 78.428,29.852C77.936,29.907 77.444,29.879 76.966,29.702L76.296,29.47C75.829,29.317 75.337,29.253 74.846,29.28C74.149,29.335 73.493,29.567 72.878,29.895C72.222,30.25 71.758,30.783 71.538,31.508C71.415,31.932 71.401,32.368 71.456,32.806C71.593,33.804 72.112,34.501 73.041,34.87C73.096,34.884 73.137,34.91 73.191,34.925C73.314,34.993 73.328,35.062 73.218,35.157L72.876,35.389L72.056,35.895C71.851,36.018 71.824,36.115 71.892,36.332C71.973,36.587 72.125,36.815 72.329,36.988C72.517,37.149 72.729,37.278 72.958,37.371C73.108,37.439 73.108,37.471 72.972,37.591L72.192,38.151C71.932,38.351 71.672,38.551 71.454,38.807C71.146,39.136 71.023,39.598 71.126,40.037C71.228,40.511 71.476,40.942 71.836,41.267C72.191,41.596 72.624,41.831 73.093,41.95C73.858,42.17 74.651,42.182 75.43,42.032C76.55,41.827 77.53,41.332 78.3,40.488C78.833,39.928 79.147,39.272 79.175,38.488C79.236,37.556 78.609,36.707 77.699,36.493L76.961,36.356L74.706,36.156C74.46,36.142 74.214,36.101 74.009,35.978C73.749,35.814 73.681,35.5 73.845,35.295C73.968,35.145 74.118,35.049 74.31,35.035L74.747,34.995C75.611,34.907 76.423,34.537 77.056,33.943C77.394,33.63 77.636,33.227 77.753,32.781C77.917,32.193 77.917,31.581 77.78,30.981C77.74,30.831 77.753,30.817 77.944,30.844L77.95,30.85ZM74.6,37.657C74.682,37.671 74.764,37.657 74.846,37.657C75.42,37.684 76.008,37.725 76.568,37.877C76.751,37.931 76.929,38 77.101,38.082C77.648,38.382 77.853,38.902 77.784,39.462C77.702,40.077 77.36,40.514 76.827,40.802C76.472,41.002 76.075,41.089 75.665,41.13C75.515,41.144 75.378,41.13 75.228,41.13C74.75,41.144 74.285,41.09 73.834,40.898C73.52,40.775 73.26,40.598 73.028,40.351C72.55,39.873 72.328,38.998 73.042,38.287C73.479,37.887 73.972,37.604 74.6,37.657ZM76.158,33.393C75.871,34.117 75.242,34.336 74.614,34.24C74.04,34.158 73.616,33.844 73.344,33.324C72.989,32.627 72.894,31.904 73.098,31.151C73.248,30.591 73.59,30.167 74.191,30.071C74.956,29.934 75.691,30.208 76.077,30.973C76.277,31.343 76.364,31.793 76.364,32.435C76.35,32.695 76.296,33.05 76.159,33.392L76.158,33.393ZM58.94,32.463C58.817,31.725 58.544,31.055 58.038,30.495C57.286,29.661 56.33,29.295 55.25,29.292C54.307,29.278 53.42,29.552 52.626,30.044C51.846,30.511 51.273,31.26 51.027,32.135C50.795,32.928 50.807,33.735 50.987,34.54C51.465,36.7 53.133,37.628 55.127,37.492C55.715,37.452 56.275,37.26 56.807,37C57.6,36.63 58.174,36.043 58.57,35.264C58.884,34.622 59.02,33.938 59.007,33.159L58.939,32.462L58.94,32.463ZM57,35.497C56.801,36.124 56.246,36.576 55.592,36.645C54.992,36.727 54.43,36.577 53.925,36.221C53.56,35.953 53.265,35.601 53.064,35.196C52.504,34.048 52.408,32.846 52.694,31.616C52.786,31.235 52.985,30.889 53.268,30.618C53.774,30.153 54.361,30.044 55.018,30.181C55.648,30.318 56.125,30.659 56.518,31.179C56.911,31.699 57.092,32.299 57.201,32.929C57.256,33.243 57.256,33.571 57.269,33.776C57.269,34.432 57.214,34.976 57.009,35.498L57,35.497ZM88.8,32.573C88.7,31.78 88.404,31.056 87.843,30.455C87.105,29.649 86.148,29.307 85.083,29.293C84.167,29.279 83.32,29.539 82.541,29.99C81.666,30.51 81.065,31.247 80.833,32.245C80.556,33.334 80.672,34.486 81.161,35.497C81.611,36.454 82.377,37.069 83.389,37.342C84.509,37.642 85.576,37.506 86.614,37C87.516,36.563 88.158,35.88 88.527,34.95C88.747,34.403 88.827,33.816 88.841,33.132C88.855,33.009 88.827,32.79 88.801,32.572L88.8,32.573ZM86.914,35.32C86.694,36.058 86.231,36.536 85.452,36.646C84.878,36.728 84.332,36.591 83.839,36.263C83.415,35.976 83.115,35.593 82.896,35.143C82.65,34.665 82.513,34.159 82.459,33.64C82.377,32.998 82.377,32.37 82.527,31.727C82.556,31.6 82.597,31.477 82.65,31.358C83.033,30.401 83.88,29.964 84.878,30.183C85.548,30.333 86.053,30.703 86.436,31.263C86.806,31.81 86.983,32.411 87.066,33.063C87.106,33.323 87.121,33.596 87.106,33.828C87.106,34.361 87.066,34.853 86.906,35.331L86.914,35.32Z" style="fill-rule:nonzero;"/>
    </g>
</svg>
