<?xml version="1.0" encoding="UTF-8" standalone="no"?>
<!DOCTYPE svg PUBLIC "-//W3C//DTD SVG 1.1//EN" "http://www.w3.org/Graphics/SVG/1.1/DTD/svg11.dtd">
<svg width="100%" height="100%" viewBox="0 0 120 60" version="1.1" xmlns="http://www.w3.org/2000/svg" xmlns:xlink="http://www.w3.org/1999/xlink" xml:space="preserve" xmlns:serif="http://www.serif.com/" style="fill-rule:evenodd;clip-rule:evenodd;stroke-linejoin:round;stroke-miterlimit:2;">
    <g transform="matrix(0.768628,0,0,0.768628,-2.36401,-0.745128)">
        <g transform="matrix(1.03943,0,0,1.03943,-32.3826,-2.34418)">
            <g id="A" transform="matrix(0.063405,0,0,0.063405,64.7426,29.1137)">
                <path d="M-92.867,160.851C-181.107,109.905 -211.796,-4.627 -160.85,-92.868C-109.905,-181.108 4.628,-211.797 92.868,-160.851C181.108,-109.906 211.797,4.627 160.852,92.867C144.551,121.1 121.101,144.55 92.868,160.851L36.947,63.991C48.179,57.506 57.508,48.177 63.993,36.945C84.26,1.84 72.051,-43.724 36.947,-63.992C1.842,-84.259 -43.722,-72.05 -63.99,-36.946C-84.257,-1.841 -72.049,43.723 -36.944,63.991L-92.867,160.851Z" style="fill-rule:nonzero;"/>
            </g>
            <g id="A1" serif:id="A" transform="matrix(-0.063405,0,0,-0.063405,78.185,52.3626)">
                <path d="M-92.867,160.851C-181.107,109.905 -211.796,-4.627 -160.85,-92.868C-109.905,-181.108 4.628,-211.797 92.868,-160.851C181.108,-109.906 211.797,4.627 160.852,92.867C144.551,121.1 121.101,144.55 92.868,160.851L36.947,63.991C48.179,57.506 57.508,48.177 63.993,36.945C84.26,1.84 72.051,-43.724 36.947,-63.992C1.842,-84.259 -43.722,-72.05 -63.99,-36.946C-84.257,-1.841 -72.049,43.723 -36.944,63.991L-92.867,160.851Z" style="fill-rule:nonzero;"/>
            </g>
            <g id="A2" serif:id="A" transform="matrix(-0.031703,-0.054911,0.054911,-0.031703,51.5546,52.3622)">
                <path d="M-92.867,160.851C-181.107,109.905 -211.796,-4.627 -160.85,-92.868C-109.905,-181.108 4.628,-211.797 92.868,-160.851C181.108,-109.906 211.797,4.627 160.852,92.867C144.551,121.1 121.101,144.55 92.868,160.851L36.947,63.991C48.179,57.506 57.508,48.177 63.993,36.945C84.26,1.84 72.051,-43.724 36.947,-63.992C1.842,-84.259 -43.722,-72.05 -63.99,-36.946C-84.257,-1.841 -72.049,43.723 -36.944,63.991L-92.867,160.851Z" style="fill-rule:nonzero;"/>
            </g>
        </g>
        <path d="M71.253,28.933C72.987,28.777 74.743,28.779 76.469,29.027C77.533,29.213 78.663,29.491 79.461,30.267C80.299,31.2 80.505,32.5 80.688,33.696C80.989,36.179 80.955,38.696 80.688,41.181C80.509,42.381 80.335,43.704 79.541,44.691C78.675,45.571 77.408,45.821 76.208,46.007C74.475,46.223 72.715,46.273 70.975,46.1C69.796,45.967 68.565,45.772 67.561,45.1C66.912,44.7 66.564,43.961 66.327,43.256C65.851,41.787 65.791,40.227 65.727,38.696C65.719,36.673 65.757,34.629 66.153,32.643C66.367,31.713 66.625,30.692 67.411,30.073C68.517,29.271 69.921,29.077 71.245,28.94L71.253,28.933ZM71.54,31.707C73.011,31.589 74.513,31.553 75.967,31.84C76.531,31.953 77.196,32.24 77.3,32.869C77.74,34.675 77.639,36.556 77.656,38.403C77.603,39.716 77.632,41.072 77.192,42.329C76.808,43.156 75.761,43.223 74.972,43.343C73.389,43.432 71.745,43.512 70.212,43.043C69.505,42.856 69.279,42.109 69.172,41.459C68.879,39.571 68.972,37.649 69.012,35.747C69.092,34.68 69.079,33.573 69.461,32.547C69.901,31.88 70.811,31.807 71.541,31.696L71.54,31.707ZM87.044,34.684C88.111,34.015 89.407,33.905 90.623,34.017C91.756,34.115 93.017,34.5 93.625,35.545C94.351,36.857 94.392,38.407 94.443,39.869C94.411,41.373 94.383,42.944 93.776,44.343C93.421,45.192 92.605,45.748 91.733,45.969C90.397,46.297 88.928,46.333 87.64,45.8C86.944,45.528 86.463,44.936 86.064,44.329L86.064,51.204L83.107,51.204L83.107,34.133L85.963,34.133L85.883,35.891C86.236,35.46 86.549,34.984 87.047,34.688L87.044,34.684ZM88.004,36.22C88.828,36.157 89.7,36.14 90.471,36.479C90.959,36.689 91.217,37.205 91.304,37.705C91.56,38.996 91.528,40.329 91.437,41.636C91.347,42.425 91.22,43.447 90.351,43.752C89.347,44.08 88.201,44.101 87.209,43.717C86.287,43.317 86.179,42.211 86.089,41.344C86.036,40.013 85.956,38.645 86.356,37.352C86.556,36.619 87.316,36.285 88.017,36.219L88.004,36.22ZM97.964,34.693C99.411,33.951 101.105,33.924 102.693,34C104.027,34.111 105.619,34.331 106.347,35.596C107.168,37.123 107.035,38.929 107.149,40.593L99.096,40.593C99.189,41.457 99.079,42.389 99.515,43.18C99.888,43.807 100.677,43.933 101.345,43.971C102.172,43.976 103.06,44.044 103.821,43.66C104.257,43.319 104.261,42.727 104.315,42.212L107.141,42.212C107.107,43.195 106.981,44.296 106.191,44.988C104.991,46.051 103.311,46.161 101.795,46.191C100.457,46.151 99.044,46.084 97.845,45.424C96.876,44.851 96.565,43.691 96.396,42.624C96.18,41.084 96.125,39.517 96.309,37.957C96.46,36.737 96.789,35.291 97.963,34.668L97.964,34.693ZM99.697,36.567C100.501,36.079 101.497,36.176 102.399,36.189C102.959,36.249 103.639,36.283 104.003,36.776C104.373,37.387 104.309,38.136 104.309,38.82C102.576,38.823 100.847,38.828 99.115,38.819C99.141,38.056 99.081,37.125 99.696,36.552L99.697,36.567ZM113.431,34.7C114.449,33.993 115.764,33.895 116.964,34.033C117.984,34.14 119.064,34.529 119.667,35.409C120.2,36.14 120.349,37.069 120.357,37.943L120.356,46.039L117.547,46.039L117.543,38.381C117.516,37.824 117.537,37.179 117.116,36.749C116.668,36.265 115.967,36.171 115.343,36.176C114.587,36.172 113.769,36.301 113.185,36.824C112.616,37.309 112.385,38.093 112.396,38.817L112.393,46.04L109.6,46.04L109.6,34.133L112.347,34.133L112.253,36.221C112.553,35.657 112.867,35.061 113.419,34.704L113.431,34.7ZM125.404,29.464C126.947,28.931 128.604,28.872 130.204,28.815C131.767,28.823 133.401,28.837 134.861,29.481C135.603,29.791 136.117,30.468 136.368,31.215C136.776,32.332 136.788,33.541 136.795,34.717C135.719,34.717 134.643,34.72 133.568,34.716C133.551,33.889 133.613,32.961 133.101,32.259C132.568,31.729 131.773,31.731 131.101,31.649C129.701,31.623 128.248,31.533 126.908,32.016C126.425,32.169 126.175,32.652 126.077,33.117C125.803,34.365 125.8,35.653 125.803,36.927C125.819,38.628 125.792,40.353 126.156,42.028C126.252,42.641 126.816,43.017 127.38,43.152C128.687,43.477 130.052,43.419 131.387,43.352C132.083,43.261 132.931,43.215 133.368,42.576C133.835,41.813 133.768,40.876 133.732,40.02L136.989,40.02C136.976,41.372 136.952,42.769 136.461,44.049C136.195,44.719 135.685,45.287 134.995,45.543C133.665,46.076 132.195,46.109 130.799,46.209C129.164,46.236 127.508,46.196 125.909,45.816C124.972,45.572 123.949,45.141 123.513,44.211C122.959,42.979 122.857,41.608 122.713,40.283L122.56,35.023C122.644,33.603 122.773,32.105 123.54,30.868C123.948,30.179 124.663,29.748 125.407,29.495L125.404,29.464ZM137.504,28.968L140.867,28.984L144.256,39.325L145.429,43.341L146.729,39L149.985,28.983L153.311,28.963L153.311,29.329L147.924,46.017C146.257,46.051 144.591,46.057 142.924,46.015L137.505,28.969L137.504,28.968Z"/>
    </g>
</svg>
