<?xml version="1.0" encoding="UTF-8" standalone="no"?>
<!DOCTYPE svg PUBLIC "-//W3C//DTD SVG 1.1//EN" "http://www.w3.org/Graphics/SVG/1.1/DTD/svg11.dtd">
<svg width="100%" height="100%" viewBox="0 0 2500 2438" version="1.1" xmlns="http://www.w3.org/2000/svg" xmlns:xlink="http://www.w3.org/1999/xlink" xml:space="preserve" xmlns:serif="http://www.serif.com/" style="fill-rule:evenodd;clip-rule:evenodd;stroke-linejoin:round;stroke-miterlimit:2;">
    <path d="M2446.31,440.478C2446.31,210.587 2259.66,23.944 2029.77,23.944L474.839,23.944C244.948,23.944 58.306,210.587 58.306,440.478L58.306,1995.41C58.306,2225.3 244.948,2411.94 474.839,2411.94L2029.77,2411.94C2259.66,2411.94 2446.31,2225.3 2446.31,1995.41L2446.31,440.478ZM2000,1113.79C1968.75,1097.12 1935.42,1085.67 1900,1078.38C1861.46,1070.04 1822.92,1064.83 1783.33,1064.83C1762.5,1063.79 1740.62,1066.92 1720.83,1072.12C1707.29,1075.25 1695.83,1082.54 1688.54,1092.96C1683.33,1101.29 1680.21,1111.71 1680.21,1121.08C1680.21,1130.46 1684.38,1139.83 1690.62,1148.17C1700,1159.62 1712.5,1169 1726.04,1176.29C1750,1188.79 1775,1200.25 1800,1210.67C1856.25,1229.42 1910.42,1255.46 1960.42,1286.71C1994.79,1308.58 2022.92,1337.75 2042.71,1373.17C2059.38,1406.5 2067.71,1442.96 2066.67,1480.46C2067.71,1529.42 2053.12,1578.38 2026.04,1619C1996.88,1660.67 1956.25,1692.96 1909.38,1711.71C1858.33,1733.58 1795.83,1745.04 1720.83,1745.04C1672.92,1745.04 1626.04,1740.88 1579.17,1731.5C1542.71,1725.25 1506.25,1713.79 1472.92,1698.17C1465.62,1694 1460.42,1686.71 1461.46,1678.38L1461.46,1497.12C1461.46,1494 1462.5,1489.83 1465.62,1487.75C1468.75,1485.67 1471.88,1486.71 1475,1488.79C1515.62,1512.75 1558.33,1529.42 1604.17,1539.83C1643.75,1550.25 1685.42,1555.46 1727.08,1555.46C1766.67,1555.46 1794.79,1550.25 1813.54,1540.88C1830.21,1533.58 1841.67,1515.88 1841.67,1497.12C1841.67,1482.54 1833.33,1469 1816.67,1455.46C1800,1441.92 1765.62,1426.29 1714.58,1406.5C1661.46,1387.75 1612.5,1362.75 1566.67,1331.5C1534.38,1308.58 1507.29,1278.38 1487.5,1242.96C1470.83,1209.62 1462.5,1173.17 1463.54,1136.71C1463.54,1091.92 1476.04,1049.21 1498.96,1010.67C1525,969 1563.54,935.667 1608.33,914.833C1657.29,889.833 1718.75,878.375 1792.71,878.375C1835.42,878.375 1879.17,881.5 1921.88,887.75C1953.12,891.917 1983.33,900.25 2011.46,911.708C2015.62,912.75 2019.79,916.917 2021.88,921.083C2022.92,925.25 2023.96,929.417 2023.96,933.583L2023.96,1103.38C2023.96,1107.54 2021.88,1111.71 2018.75,1113.79C2009.38,1115.88 2004.17,1115.88 2000,1113.79ZM562.5,1709.62L562.5,637.75C562.5,630.458 565.625,626.292 572.917,626.292C590.625,626.292 607.292,626.292 631.25,625.25C656.25,624.208 682.292,624.208 710.417,623.167C738.542,622.125 768.75,622.125 801.042,621.083C833.333,620.042 864.583,620.042 895.833,620.042C981.25,620.042 1052.08,630.458 1110.42,652.333C1162.5,670.042 1210.42,699.208 1250,737.75C1283.33,771.083 1309.38,811.708 1326.04,856.5C1341.67,900.25 1350,945.042 1350,991.917C1350,1081.5 1329.17,1155.46 1287.5,1213.79C1245.83,1272.12 1187.5,1315.88 1119.79,1340.88C1048.96,1366.92 970.833,1376.29 885.417,1376.29C860.417,1376.29 843.75,1376.29 833.333,1375.25C822.917,1374.21 808.333,1374.21 788.542,1374.21L788.542,1708.58C789.583,1715.88 784.375,1722.12 777.083,1723.17L575,1723.17C566.667,1723.17 562.5,1719 562.5,1709.62ZM789.583,827.333L789.583,1177.33C804.167,1178.38 817.708,1179.42 830.208,1179.42L885.417,1179.42C926.042,1179.42 966.667,1173.17 1005.21,1160.67C1038.54,1151.29 1067.71,1131.5 1090.62,1105.46C1112.5,1079.42 1122.92,1044 1122.92,998.167C1123.96,965.875 1115.62,933.583 1098.96,905.458C1081.25,878.375 1056.25,857.542 1026.04,846.083C987.5,830.458 945.833,824.208 903.125,825.25C876.042,825.25 852.083,825.25 832.292,826.292C811.458,825.25 796.875,826.292 789.583,827.333Z" style="fill:rgb(7,7,7);"/>
</svg>
