<?xml version="1.0" encoding="UTF-8" standalone="no"?>
<!DOCTYPE svg PUBLIC "-//W3C//DTD SVG 1.1//EN" "http://www.w3.org/Graphics/SVG/1.1/DTD/svg11.dtd">
<svg width="100%" height="100%" viewBox="0 0 2500 2500" version="1.1" xmlns="http://www.w3.org/2000/svg" xmlns:xlink="http://www.w3.org/1999/xlink" xml:space="preserve" xmlns:serif="http://www.serif.com/" style="fill-rule:evenodd;clip-rule:evenodd;stroke-linejoin:round;stroke-miterlimit:2;">
    <path d="M2350.49,739.086C2350.49,697.725 2341.68,660.432 2323.37,629.239C2305.74,598.05 2279.29,572.284 2244.04,551.942C1951.11,383.104 1657.51,214.269 1364.59,45.431C1285.26,0 1209.32,1.357 1130.66,47.464C1014.03,115.95 429.546,450.91 255.963,551.942C184.087,593.303 149.507,657.042 149.507,739.765L149.507,1759.57C149.507,1800.25 158.322,1836.19 175.273,1867.38C192.904,1899.25 220.027,1926.37 255.963,1947.39C430.225,2048.42 1014.03,2382.7 1130.66,2451.87C1209.32,2497.97 1285.93,2500 1364.59,2453.9C1657.51,2284.39 1951.11,2116.23 2244.04,1947.39C2280.65,1926.37 2307.1,1899.92 2324.72,1867.38C2341.68,1836.19 2350.49,1800.25 2350.49,1759.57L2350.49,739.086Z" style="fill-rule:nonzero;"/>
    <path d="M1252.71,1245.6L173.916,1866.7C191.548,1898.57 218.67,1925.69 254.607,1946.71C428.869,2047.74 1012.68,2382.03 1129.3,2451.19C1207.96,2497.3 1284.58,2499.33 1363.24,2453.22C1656.16,2283.71 1949.76,2115.55 2242.68,1946.71C2279.29,1925.69 2305.74,1899.25 2323.37,1866.7L1252.71,1245.6Z" style="fill-rule:nonzero;"/>
    <path d="M933.344,1429.35C996.406,1539.2 1114.39,1613.11 1249.32,1613.11C1385.61,1613.11 1504.27,1538.52 1566.65,1427.32L1252.71,1245.6L933.344,1429.35Z" style="fill-rule:nonzero;"/>
    <path d="M2350.49,739.086C2350.49,697.725 2341.68,660.432 2323.37,629.239L1252.71,1245.6L2324.72,1866.7C2341.68,1835.51 2350.49,1799.57 2350.49,1758.89L2350.49,739.086Z" style="fill-rule:nonzero;"/>
    <g>
        <path d="M1566.65,1427.32C1504.27,1537.84 1385.61,1613.11 1249.32,1613.11C1113.71,1613.11 995.729,1539.2 933.347,1429.35C902.834,1375.79 885.203,1314.76 885.203,1248.99C885.203,1047.6 1047.94,884.869 1249.32,884.869C1383.58,884.869 1500.88,958.099 1563.94,1066.59L1881.95,883.512C1755.16,665.179 1519.19,518.039 1248.64,518.039C844.519,518.039 517.696,845.542 517.696,1248.99C517.696,1381.21 552.953,1505.97 614.658,1613.11C740.776,1832.12 978.098,1979.94 1249.32,1979.94C1521.23,1979.94 1758.55,1831.44 1884.66,1611.07L1566.65,1427.32ZM1968.74,1076.08L1896.19,1076.08L1896.19,1426.64L1968.74,1426.64L1968.74,1076.08ZM2129.44,1076.08L2056.89,1076.08L2056.89,1426.64L2129.44,1426.64L2129.44,1076.08Z" style="fill:white;fill-rule:nonzero;"/>
        <path d="M2188.43,1135.07L1837.88,1135.07L1837.88,1207.63L2188.43,1207.63L2188.43,1135.07ZM2188.43,1295.1L1837.88,1295.1L1837.88,1367.65L2188.43,1367.65L2188.43,1295.1Z" style="fill:white;fill-rule:nonzero;"/>
    </g>
</svg>
