<?xml version="1.0" encoding="UTF-8" standalone="no"?>
<!DOCTYPE svg PUBLIC "-//W3C//DTD SVG 1.1//EN" "http://www.w3.org/Graphics/SVG/1.1/DTD/svg11.dtd">
<svg width="100%" height="100%" viewBox="0 0 16 16" version="1.1" xmlns="http://www.w3.org/2000/svg" xmlns:xlink="http://www.w3.org/1999/xlink" xml:space="preserve" xmlns:serif="http://www.serif.com/" style="fill-rule:evenodd;clip-rule:evenodd;stroke-linejoin:round;stroke-miterlimit:2;">
    <g id="surface1">
        <path d="M14.051,3.84L8.664,0.813C8.254,0.582 7.746,0.582 7.336,0.813L1.949,3.84C1.535,4.074 1.281,4.508 1.281,4.973L1.281,11.027C1.281,11.492 1.535,11.926 1.949,12.16L7.336,15.188C7.543,15.301 7.77,15.359 8,15.359C8.23,15.359 8.457,15.301 8.664,15.188L14.051,12.16C14.465,11.926 14.719,11.492 14.719,11.027L14.719,4.973C14.719,4.508 14.465,4.074 14.051,3.84ZM8,11.84C5.883,11.84 4.16,10.117 4.16,8C4.16,5.883 5.883,4.16 8,4.16C9.211,4.16 10.328,4.723 11.055,5.676L9.652,6.488C9.23,6.027 8.633,5.762 8,5.762C6.766,5.762 5.762,6.766 5.762,8C5.762,9.234 6.766,10.238 8,10.238C8.633,10.238 9.23,9.973 9.652,9.512L11.055,10.324C10.328,11.277 9.211,11.84 8,11.84ZM11.84,8.32L11.199,8.32L11.199,8.961L10.559,8.961L10.559,8.32L9.922,8.32L9.922,7.68L10.559,7.68L10.559,7.039L11.199,7.039L11.199,7.68L11.84,7.68L11.84,8.32ZM14.078,8.32L13.441,8.32L13.441,8.961L12.801,8.961L12.801,8.32L12.16,8.32L12.16,7.68L12.801,7.68L12.801,7.039L13.441,7.039L13.441,7.68L14.078,7.68L14.078,8.32Z" style="fill-rule:nonzero;"/>
    </g>
</svg>
