<?xml version="1.0" encoding="UTF-8" standalone="no"?>
<!DOCTYPE svg PUBLIC "-//W3C//DTD SVG 1.1//EN" "http://www.w3.org/Graphics/SVG/1.1/DTD/svg11.dtd">
<svg width="100%" height="100%" viewBox="0 0 512 306" version="1.1" xmlns="http://www.w3.org/2000/svg" xmlns:xlink="http://www.w3.org/1999/xlink" xml:space="preserve" xmlns:serif="http://www.serif.com/" style="fill-rule:evenodd;clip-rule:evenodd;stroke-linejoin:round;stroke-miterlimit:2;">
    <g id="Layer-1" serif:id="Layer 1" transform="matrix(1,0,0,1,0,-2.83465)">
        <path d="M44.79,77.221L42.909,239.394L86.011,266.352L480.06,268.851L481.005,77.221L44.79,77.221ZM53.732,233.479L55.419,87.974C55.419,87.974 470.198,87.974 470.198,87.974C470.198,87.974 469.36,258.029 469.36,258.029C469.36,258.029 115.289,255.784 89.128,255.618L53.732,233.479Z"/>
        <path d="M81.816,277.503L53.644,263.313L49.098,272.338L80.03,287.918L80.682,287.642C80.682,287.642 82.485,287.309 82.485,287.309C82.485,287.309 82.272,287.424 81.67,287.544C81.643,287.549 81.031,287.628 81.031,287.628C81.031,287.628 81.142,287.624 81.267,287.62C85.14,287.516 122.386,287.099 480.015,289.196L480.075,279.09C139.363,277.092 89.198,277.379 81.816,277.503Z"/>
        <path d="M117.295,125.685L116.991,217.517L122.47,217.719C158.36,219.043 175.846,211.975 184.346,201.333C190.329,193.842 192.237,184.317 192.365,173.55L192.366,173.534C192.456,158.769 189.413,147.94 182.596,140.264C172.809,129.244 154.387,124.392 122.749,125.495L117.295,125.685ZM128.366,206.529L128.597,136.69C140.063,136.524 149.415,137.205 156.951,138.926C164.649,140.685 170.287,143.479 174.118,147.793C179.341,153.674 181.095,162.134 181.027,173.431C180.93,181.454 179.946,188.674 175.487,194.257C172.191,198.383 167.02,201.491 159.28,203.587C151.541,205.684 141.458,206.712 128.366,206.529L128.366,206.529Z"/>
        <path id="path4538" d="M218.571,217.143L204.643,217.143L236.786,171.34L205.982,126.072L219.643,125.536L244.286,163.572L269.196,125.536L282.321,125.536L250.982,171.607L282.054,216.875L268.393,217.143L243.482,179.643L218.571,217.143Z" style="fill-rule:nonzero;"/>
        <path id="path4540" d="M311.786,219.822L311.518,135.447L295.714,144.286L295.446,129.554L309.911,120.715L326.518,120.447L326.25,220.09L311.786,219.822Z" style="fill-rule:nonzero;"/>
        <path id="path4546" d="M349.821,219.554L349.821,207.5L390.536,158.482C394.321,150.995 396.404,143.718 392.507,138.247C388.173,132.162 378.477,130.249 370.702,134.811C367.58,136.643 365.727,138.622 364.018,146.161L348.482,146.429C349.403,142.868 350.286,136.118 355.777,129.877C360.144,124.915 367.128,119.881 381.482,119.853C395.257,119.826 409.947,122.814 410.625,147.5C409.272,157.094 406.073,160.229 403.393,165.179L369.643,206.697L411.429,206.697L410.893,220.09L349.821,219.554Z" style="fill-rule:nonzero;"/>
    </g>
</svg>
