<?xml version="1.0" encoding="UTF-8" standalone="no"?>
<!DOCTYPE svg PUBLIC "-//W3C//DTD SVG 1.1//EN" "http://www.w3.org/Graphics/SVG/1.1/DTD/svg11.dtd">
<svg width="100%" height="100%" viewBox="0 0 1358 563" version="1.1" xmlns="http://www.w3.org/2000/svg" xmlns:xlink="http://www.w3.org/1999/xlink" xml:space="preserve" xmlns:serif="http://www.serif.com/" style="fill-rule:evenodd;clip-rule:evenodd;stroke-linejoin:round;stroke-miterlimit:2;">
    <g transform="matrix(0.125,0,0,-0.125,0,562.5)">
        <g id="g10">
            <g id="g12">
                <path id="path14" d="M1475.08,1979.84C1500.21,1888.19 1539.66,1805.72 1593.5,1732.43C1647.29,1659.11 1716.34,1600.21 1800.68,1555.66C1884.95,1511.14 1985.38,1488.94 2102.03,1488.94C2218.62,1488.94 2319.05,1511.14 2403.39,1555.66C2487.66,1600.21 2556.71,1659.11 2610.56,1732.43C2664.34,1805.72 2703.79,1888.19 2728.92,1979.84C2754.03,2071.5 2766.6,2164.45 2766.6,2258.7C2766.6,2352.95 2754.03,2445.83 2728.92,2537.49C2703.79,2629.15 2664.34,2711.61 2610.56,2784.96C2556.71,2858.23 2487.66,2917.13 2403.39,2961.67C2319.05,3006.2 2218.62,3028.47 2102.03,3028.47C1985.38,3028.47 1884.95,3006.2 1800.68,2961.67C1716.34,2917.13 1647.29,2858.23 1593.5,2784.96C1539.66,2711.61 1500.21,2629.15 1475.08,2537.49C1449.96,2445.83 1437.46,2352.95 1437.46,2258.7C1437.46,2164.45 1449.96,2071.5 1475.08,1979.84ZM1240.7,2626.87C1279.21,2744.56 1337.03,2848.79 1414.04,2939.46C1491.05,3030.13 1586.94,3102.55 1701.57,3156.57C1816.21,3210.61 1949.71,3237.69 2102.03,3237.69C2254.28,3237.69 2387.79,3210.61 2502.43,3156.57C2617.06,3102.55 2712.95,3030.13 2789.96,2939.46C2866.97,2848.79 2924.79,2744.56 2963.29,2626.87C3001.8,2509.18 3021.11,2386.68 3021.11,2259.37C3021.11,2132.07 3001.8,2009.51 2963.29,1891.84C2924.79,1774.15 2866.97,1669.91 2789.96,1579.23C2712.95,1488.56 2617.06,1416.59 2502.43,1363.42C2387.79,1310.3 2254.28,1283.66 2102.03,1283.66C1949.71,1283.66 1816.21,1310.3 1701.57,1363.42C1586.94,1416.59 1491.05,1488.56 1414.04,1579.23C1337.03,1669.91 1279.21,1774.15 1240.7,1891.84C1202.2,2009.51 1182.94,2132.07 1182.94,2259.37C1182.94,2386.68 1202.2,2509.18 1240.7,2626.87" style="fill-rule:nonzero;"/>
                <path id="path16" d="M4116.68,2091.86C4101.78,2144.78 4079.13,2191.96 4048.57,2233.42C4018.01,2274.86 3978.82,2307.86 3931.03,2332.4C3883.18,2356.95 3827.2,2369.23 3763,2369.23C3695.58,2369.23 3638.39,2356.15 3591.43,2330.07C3544.39,2303.97 3506.03,2269.86 3476.23,2227.68C3446.43,2185.49 3424.9,2137.5 3411.59,2083.77C3398.27,2030.06 3391.64,1975.59 3391.64,1920.39C3391.64,1862.04 3398.64,1805.65 3412.79,1751.2C3426.86,1696.66 3449.2,1648.75 3479.77,1607.29C3510.31,1565.85 3549.83,1532.48 3598.43,1507.18C3647.04,1481.85 3705.81,1469.2 3774.74,1469.2C3843.67,1469.2 3901.24,1482.21 3947.44,1508.3C3993.65,1534.39 4030.9,1568.93 4059.11,1611.92C4087.27,1654.85 4107.65,1703.95 4120.21,1759.21C4132.71,1814.48 4139.02,1871.23 4139.02,1929.57C4139.02,1984.79 4131.58,2038.87 4116.68,2091.86ZM3399.72,2515.22L3399.72,2353.87L3403.75,2353.87C3436.71,2419.93 3488.53,2467.98 3559.23,2497.96C3629.93,2527.93 3707.63,2542.92 3792.48,2542.92C3886.66,2542.92 3968.72,2526.03 4038.66,2492.22C4108.54,2458.42 4166.61,2412.77 4212.94,2355.23C4259.28,2297.63 4294.18,2231.25 4317.79,2156.05C4341.34,2080.82 4353.14,2001 4353.14,1916.56C4353.14,1832.12 4341.72,1752.3 4318.99,1677.05C4296.2,1601.82 4261.68,1536.18 4215.34,1480.18C4169.01,1424.17 4110.87,1380.01 4041,1347.81C3971.05,1315.61 3889.81,1299.46 3797.15,1299.46C3767.29,1299.46 3733.9,1302.53 3697.03,1308.65C3660.11,1314.86 3623.62,1324.79 3587.51,1338.61C3551.41,1352.43 3517.19,1371.32 3485,1395.12C3452.81,1418.93 3425.73,1448.47 3403.75,1483.88L3399.72,1483.88L3399.72,869.172L3197.71,869.172L3197.71,2515.22L3399.72,2515.22" style="fill-rule:nonzero;"/>
                <path id="path18" d="M5334.47,2164.7C5316.45,2206.03 5292.13,2241.68 5261.58,2271.53C5230.96,2301.38 5194.86,2325.13 5153.32,2342.77C5111.72,2360.41 5065.83,2369.23 5015.64,2369.23C4963.88,2369.23 4917.17,2360.41 4875.63,2342.77C4834.04,2325.13 4798.37,2301.01 4768.58,2270.42C4738.78,2239.77 4715.24,2204.11 4698,2163.53C4680.71,2122.94 4670.54,2079.65 4667.39,2033.69L5366.31,2033.69C5363.14,2079.65 5352.54,2123.32 5334.47,2164.7ZM5383.42,1400.67C5292.13,1333.19 5177.31,1299.46 5038.81,1299.46C4941.22,1299.46 4856.57,1314.8 4784.99,1345.46C4713.34,1376.17 4653.13,1419.17 4604.33,1474.44C4555.54,1529.71 4518.93,1595.69 4494.56,1672.48C4470.19,1749.23 4456.43,1832.93 4453.27,1923.47C4453.27,2014.01 4467.41,2096.9 4495.82,2172.17C4524.16,2247.41 4563.93,2312.67 4615.12,2367.93C4666.31,2423.2 4726.97,2466.13 4797.05,2496.85C4867.11,2527.56 4943.94,2542.92 5027.45,2542.92C5136.15,2542.92 5226.29,2520.97 5297.99,2477.17C5369.71,2433.32 5427.21,2377.56 5470.51,2309.89C5513.82,2242.17 5543.8,2168.34 5560.34,2088.41C5576.88,2008.41 5583.57,1932.29 5580.42,1860L4667.39,1860C4665.81,1807.88 4672.06,1758.47 4686.2,1711.72C4700.34,1664.97 4723.07,1623.58 4754.5,1587.55C4785.94,1551.54 4825.96,1522.86 4874.69,1501.4C4923.35,1479.92 4980.67,1469.2 5046.64,1469.2C5131.41,1469.2 5200.92,1488.37 5255.08,1526.81C5309.24,1565.23 5344.96,1623.63 5362.26,1702.1L5560.47,1702.1C5533.7,1568.62 5474.69,1468.15 5383.42,1400.67" style="fill-rule:nonzero;"/>
                <path id="path20" d="M5904.18,2515.22L5904.18,2326.17L5907.97,2326.17C5991.66,2470.63 6124.41,2542.92 6306.15,2542.92C6386.7,2542.92 6453.85,2532.13 6507.64,2510.61C6561.35,2489.07 6604.79,2459.1 6637.99,2420.67C6671.19,2382.25 6694.49,2336.54 6707.93,2283.5C6721.31,2230.45 6728.07,2171.66 6728.07,2107.09L6728.07,1323.14L6526.07,1323.14L6526.07,2129.6C6526.07,2203.31 6503.96,2261.66 6459.84,2304.71C6415.66,2347.71 6355,2369.23 6277.79,2369.23C6216.33,2369.23 6163.11,2359.98 6118.16,2341.54C6073.22,2323.09 6035.78,2297.01 6005.86,2263.2C5975.96,2229.4 5953.48,2189.86 5938.52,2144.59C5923.5,2099.26 5916.04,2049.73 5916.04,1995.94L5916.04,1323.14L5714.04,1323.14L5714.04,2515.22L5904.18,2515.22" style="fill-rule:nonzero;"/>
                <path id="path22" d="M8124.43,1336.09C8033.22,1298.53 7941.11,1279.71 7848.2,1279.71C7701.5,1279.71 7569.63,1304.71 7452.48,1354.54C7335.31,1404.43 7236.54,1473.14 7156.05,1560.73C7075.57,1648.25 7013.89,1751.13 6970.96,1869.32C6928.05,1987.49 6906.58,2114.92 6906.58,2251.48C6906.58,2391.49 6927.99,2521.52 6970.78,2641.48C7013.59,2761.4 7075.12,2866 7155.41,2955.31C7235.72,3044.63 7334.38,3114.63 7451.46,3165.46C7568.55,3216.22 7700.43,3241.63 7847.13,3241.63C7945.47,3241.63 8040.66,3227.14 8132.75,3198.2C8224.86,3169.22 8308.01,3126.67 8382.25,3070.53C8456.46,3014.4 8517.7,2945.2 8565.98,2862.98C8614.28,2780.7 8643.83,2686.33 8654.55,2579.75L8252.21,2579.75C8227.15,2684.54 8178.85,2763.18 8107.32,2815.61C8035.74,2868.04 7949.02,2894.25 7847.13,2894.25C7752.32,2894.25 7671.84,2876.31 7605.68,2840.41C7539.53,2804.51 7485.86,2756.33 7444.71,2695.95C7403.55,2635.5 7373.63,2566.8 7354.9,2489.76C7336.07,2412.71 7326.74,2333.09 7326.74,2250.8C7326.74,2171.97 7336.13,2095.37 7354.94,2020.98C7373.77,1946.6 7403.75,1879.62 7444.9,1820.09C7486.05,1760.58 7539.79,1712.9 7606.05,1677C7672.29,1641.1 7752.87,1623.15 7847.83,1623.15C7987.46,1623.15 8095.27,1657.56 8171.39,1726.41C8247.52,1795.23 8291.84,1895.04 8304.39,2025.79L7880.59,2025.79L7880.59,2333.7L8684.16,2333.7L8684.16,1321.71L8416.78,1321.71L8373.96,1534.01C8298.85,1439.65 8215.64,1373.65 8124.43,1336.09" style="fill-rule:nonzero;"/>
                <path id="path24" d="M9367.09,3194.26L9367.09,1670.52L10300.6,1670.52L10300.6,1323.14L8946.93,1323.14L8946.93,3194.26L9367.09,3194.26" style="fill-rule:nonzero;"/>
                <path id="path26" d="M7380.08,1090.55C6737.23,708.5 5774.39,491.039 4700.12,491.039C2764.64,491.039 1195.62,1278.54 1195.62,2250C1195.62,3221.46 2764.64,4008.98 4700.12,4008.98C5778.34,4008.98 6745.08,3787.49 7387.95,3403.05C6686.25,4047.18 5428.11,4499.79 3989.58,4500C1786.4,4500.35 0.191,3493.25 0,2250.62C-0.188,1008.01 1785.68,0.301 3988.87,0C5421.68,-0.238 6676.56,450.922 7380.08,1090.55" style="fill-rule:nonzero;"/>
            </g>
        </g>
    </g>
</svg>
