<?xml version="1.0" encoding="UTF-8" standalone="no"?>
<svg
   xmlns:dc="http://purl.org/dc/elements/1.1/"
   xmlns:cc="http://creativecommons.org/ns#"
   xmlns:rdf="http://www.w3.org/1999/02/22-rdf-syntax-ns#"
   xmlns:svg="http://www.w3.org/2000/svg"
   xmlns="http://www.w3.org/2000/svg"
   xmlns:sodipodi="http://sodipodi.sourceforge.net/DTD/sodipodi-0.dtd"
   xmlns:inkscape="http://www.inkscape.org/namespaces/inkscape"
   width="16"
   height="16"
   viewBox="0 0 462 339"
   version="1.1"
   inkscape:version="0.92.2 (5c3e80d, 2017-08-06)"
   sodipodi:docname="qt.svg"
   style=""
   id="svg848">
  <path
     style="fill:#faffff;fill-opacity:1;stroke:#000000;stroke-width:0.00918543;stroke-linejoin:round;stroke-miterlimit:4;stroke-dasharray:none;stroke-opacity:1;paint-order:normal"
     d="M 0.93704082,201.20841 V 64.094795 L 32.737343,32.302135 64.537646,0.50947541 H 262.80633 461.07502 V 137.73508 274.96068 l -32.07637,31.68067 -32.07635,31.68067 H 198.92967 0.93704082 Z M 231.92417,300.16249 c 7.73781,-3.58396 14.32656,-6.76532 14.64168,-7.06964 0.3151,-0.30431 -4.82703,-9.24967 -11.42697,-19.87853 l -11.99989,-19.32523 3.69476,-3.35175 c 17.24679,-15.64577 24.31121,-33.52116 26.93708,-68.15995 1.52695,-20.14261 -0.11807,-47.48707 -3.81674,-63.44388 -3.1892,-13.75886 -8.75373,-27.165746 -14.55558,-35.069452 -13.32514,-18.152468 -36.99984,-26.941316 -68.7956,-25.53925 -23.67522,1.043981 -41.0569,7.255765 -52.59851,18.797417 -17.292825,17.292888 -25.883187,50.364385 -24.499413,94.318785 1.464309,46.51205 12.553823,73.18787 35.320293,84.96292 7.32847,3.79037 16.71813,6.8342 25.57559,8.29085 6.85578,1.12757 33.41529,1.5194 36.87988,0.5443 1.95524,-0.55036 2.61662,0.3696 14.98689,20.84624 9.94128,16.4559 13.24814,21.32595 14.26459,21.00775 0.72777,-0.22811 7.65414,-3.34661 15.39194,-6.93061 z m 123.78092,-39.62643 c 5.98385,-0.89426 11.03871,-1.78476 11.23304,-1.97909 0.19346,-0.19346 0.0866,-6.2312 -0.23966,-13.41527 l -0.59425,-13.06198 -14.68938,0.21656 c -15.46929,0.22811 -17.61288,-0.0606 -20.57725,-2.77546 -4.15153,-3.80063 -4.44155,-6.75465 -4.84678,-49.37069 l -0.37566,-39.49248 h 20.74452 20.74452 V 126.07529 111.49346 H 346.85063 326.59805 V 90.835855 70.178252 h -16.60708 -16.60708 v 20.634742 20.634736 l -11.13891,0.22552 -11.1389,0.22551 -0.22119,14.37931 -0.22118,14.37931 h 11.30385 11.30386 l 0.33004,43.54299 c 0.35343,46.62727 0.46778,48.05104 4.80287,59.74504 2.05099,5.53282 7.23873,11.28395 12.3969,13.74337 9.77751,4.66193 25.91413,5.6852 44.904,2.84766 z"
     id="path924"
     inkscape:connector-curvature="0" />
  <path
     style="fill:#faffff;fill-opacity:1;stroke:#000000;stroke-width:0.00031811;stroke-linejoin:round;stroke-miterlimit:4;stroke-dasharray:none;stroke-opacity:1;paint-order:normal"
     d="M 5.5983051,10.313654 C 5.4045769,10.282631 5.1764068,10.206867 5.0403602,10.128388 4.5550213,9.8484172 4.3361873,9.1595549 4.3053717,7.8147347 4.2891854,7.1083509 4.3270383,6.7168646 4.4538302,6.2793321 4.6764242,5.5112068 5.0802227,5.2064899 5.8820247,5.2015793 c 0.7759425,-0.00475 1.197792,0.2599561 1.4266499,0.8952153 0.3263638,0.9059132 0.3107557,2.8166972 -0.028881,3.5357884 -0.14674,0.3106822 -0.434041,0.54062 -0.7982627,0.638881 -0.1835643,0.04952 -0.6872035,0.07358 -0.8832258,0.04219 z"
     id="path926"
     inkscape:connector-curvature="0"
     transform="matrix(28.875,0,0,28.875,0,-61.5)" />
</svg>
