<?xml version="1.0" encoding="UTF-8" standalone="no"?>
<!DOCTYPE svg PUBLIC "-//W3C//DTD SVG 1.1//EN" "http://www.w3.org/Graphics/SVG/1.1/DTD/svg11.dtd">
<svg width="100%" height="100%" viewBox="0 0 833 238" version="1.1" xmlns="http://www.w3.org/2000/svg" xmlns:xlink="http://www.w3.org/1999/xlink" xml:space="preserve" xmlns:serif="http://www.serif.com/" style="fill-rule:evenodd;clip-rule:evenodd;stroke-linejoin:round;stroke-miterlimit:2;">
    <g transform="matrix(1,0,0,1,-81.878,-73.6046)">
        <g id="layer1">
            <g id="g8">
                <path id="path10" d="M579.28,308.08L546.8,308.08L546.8,204.32C557.2,210.08 570.88,220.72 579.28,230.96L579.28,308.08Z" style="fill-rule:nonzero;"/>
                <g id="g12">
                    <path id="path14" d="M305.44,308.08L264.96,308.08L212.16,144.88L248.96,144.88L285.28,259.68L285.76,259.68L322.56,144.88L359.6,144.88L305.44,308.08Z" style="fill-rule:nonzero;"/>
                    <path id="path16" d="M468.48,308.08L437.52,308.08L437.52,291.6L436.8,291.6C432.72,298.48 427.36,303.44 420.8,306.48C414.24,309.52 407.52,311.04 400.72,311.04C392,311.04 384.88,309.92 379.36,307.6C373.76,305.28 369.44,302.08 366.24,297.92C363.04,293.76 360.8,288.64 359.52,282.64C358.24,276.64 357.6,269.92 357.6,262.64L357.6,189.92L390.08,189.92L390.08,256.64C390.08,266.4 391.6,273.68 394.64,278.48C397.68,283.28 403.12,285.68 410.88,285.68C419.68,285.68 426.16,283.04 430.08,277.76C434.08,272.48 436,263.84 436,251.84L436,189.92L468.48,189.92L468.48,308.08Z" style="fill-rule:nonzero;"/>
                </g>
                <path id="polygon18" d="M668.96,308.08L629.6,308.08L584.64,236.96L584.56,232.4L625.52,189.84L663.92,189.84L619.36,233.28L668.96,308.08Z" style="fill-rule:nonzero;"/>
                <path id="path20" d="M674.88,226.24C675.36,218.64 677.28,212.32 680.64,207.28C684,202.24 688.24,198.24 693.44,195.2C698.64,192.16 704.48,190 710.96,188.72C717.44,187.44 723.92,186.8 730.48,186.8C736.4,186.8 742.48,187.2 748.56,188.08C754.64,188.96 760.24,190.56 765.28,192.96C770.32,195.44 774.4,198.8 777.6,203.12C780.8,207.44 782.4,213.2 782.4,220.4L782.4,281.92C782.4,287.28 782.72,292.4 783.28,297.2C783.92,302.08 784.96,305.76 786.48,308.16L753.52,308.16C752.88,306.32 752.4,304.48 752,302.56C751.6,300.64 751.36,298.72 751.2,296.72C746,302.08 739.92,305.76 732.88,307.92C725.84,310.08 718.72,311.12 711.36,311.12C705.76,311.12 700.48,310.4 695.6,309.04C690.72,307.68 686.48,305.52 682.8,302.64C679.12,299.76 676.24,296.08 674.24,291.68C672.16,287.28 671.12,282 671.12,275.92C671.12,269.2 672.32,263.68 674.64,259.36C677.04,255.04 680.08,251.52 683.76,248.96C687.52,246.4 691.76,244.4 696.56,243.12C701.36,241.84 706.16,240.8 711.04,240C715.92,239.28 720.72,238.64 725.44,238.16C730.16,237.68 734.32,237.04 738,236.08C741.68,235.2 744.56,233.84 746.72,232.08C748.88,230.32 749.84,227.76 749.68,224.4C749.68,220.88 749.12,218.08 747.92,216.08C746.8,214 745.28,212.4 743.36,211.28C741.44,210.16 739.28,209.36 736.72,208.96C734.24,208.56 731.52,208.4 728.64,208.4C722.24,208.4 717.2,209.76 713.52,212.48C709.84,215.2 707.76,219.76 707.12,226.16L674.88,226.16L674.88,226.24ZM749.92,250.24C748.56,251.44 746.8,252.4 744.8,253.12C742.72,253.84 740.56,254.4 738.16,254.88C735.84,255.36 733.36,255.68 730.72,256C728.16,256.32 725.52,256.72 722.96,257.12C720.56,257.6 718.16,258.16 715.76,258.96C713.36,259.76 711.36,260.72 709.6,262.08C707.84,263.36 706.4,265.04 705.36,266.96C704.32,268.96 703.76,271.44 703.76,274.48C703.76,277.36 704.32,279.84 705.36,281.76C706.4,283.76 707.84,285.28 709.68,286.48C711.52,287.6 713.68,288.4 716.08,288.88C718.56,289.36 721.04,289.6 723.6,289.6C730,289.6 734.96,288.56 738.48,286.4C742,284.24 744.56,281.68 746.24,278.72C747.92,275.76 748.96,272.72 749.36,269.68C749.76,266.64 749.92,264.16 749.92,262.4L749.92,250.24Z" style="fill-rule:nonzero;"/>
                <path id="path22" d="M803.28,189.84L834.24,189.84L834.24,206.32L834.96,206.32C839.04,199.44 844.4,194.48 850.96,191.36C857.52,188.24 864.24,186.64 871.04,186.64C879.76,186.64 886.88,187.84 892.4,190.16C898,192.56 902.32,195.84 905.52,200C908.72,204.16 910.96,209.28 912.24,215.28C913.52,221.28 914.16,228 914.16,235.28L914.16,308L881.68,308L881.68,241.28C881.68,231.52 880.16,224.24 877.12,219.44C874.08,214.64 868.64,212.24 860.88,212.24C852.08,212.24 845.68,214.88 841.68,220.16C837.68,225.44 835.76,234.08 835.76,246.08L835.76,308L803.28,308L803.28,189.84Z" style="fill-rule:nonzero;"/>
                <g id="g24">
                    <path id="path26" d="M489.92,169.44L489.92,308L522.4,308L522.4,187.36C511.92,180.96 501.12,174.96 489.92,169.44Z" style="fill-rule:nonzero;"/>
                </g>
                <path id="path28" d="M158.72,175.36C177.52,120.24 290.08,100 410,130.24C482,148.32 540.8,183.44 579.2,218.16C561.84,172.08 477.36,106.48 360.96,84C229.36,58.56 99.6,80.88 83.52,139.28C71.92,181.44 122.88,230.88 201.68,264.64C166.24,236 149.04,203.84 158.72,175.36Z" style="fill-rule:nonzero;"/>
                <g id="g30">
                    <path id="path32" d="M579.36,198.08L579.36,144.8L546.88,144.8L546.88,160.96C560.72,173.36 571.68,185.92 579.36,198.08Z" style="fill-rule:nonzero;"/>
                </g>
            </g>
        </g>
    </g>
</svg>
